<svg id="Layer_1" data-name="Layer 1" xmlns="http://www.w3.org/2000/svg" viewBox="0 0 537.18 777.43"><defs><style>.cls-1{fill:#231f20;}</style></defs><path class="cls-1" d="M42.51,35.23a3.29,3.29,0,0,1,3.29,3.29v6.85a3.29,3.29,0,0,1-3.29,3.29H35.66a3.29,3.29,0,0,1-3.29-3.29V38.52a3.29,3.29,0,0,1,3.29-3.29h6.85m0-3H35.66a6.29,6.29,0,0,0-6.29,6.29v6.85a6.29,6.29,0,0,0,6.29,6.29h6.85a6.29,6.29,0,0,0,6.29-6.29V38.52a6.29,6.29,0,0,0-6.29-6.29Z" transform="translate(-29.05 -32.23)"/><path class="cls-1" d="M42.51,58.94a3.29,3.29,0,0,1,3.29,3.29v6.86a3.28,3.28,0,0,1-3.29,3.28H35.66a3.28,3.28,0,0,1-3.29-3.28V62.23a3.29,3.29,0,0,1,3.29-3.29h6.85m0-3H35.66a6.29,6.29,0,0,0-6.29,6.29v6.86a6.29,6.29,0,0,0,6.29,6.28h6.85a6.29,6.29,0,0,0,6.29-6.28V62.23a6.29,6.29,0,0,0-6.29-6.29Z" transform="translate(-29.05 -32.23)"/><path class="cls-1" d="M65.77,35.23a3.29,3.29,0,0,1,3.29,3.29v6.85a3.29,3.29,0,0,1-3.29,3.29H58.91a3.28,3.28,0,0,1-3.28-3.29V38.52a3.28,3.28,0,0,1,3.28-3.29h6.86m0-3H58.91a6.29,6.29,0,0,0-6.28,6.29v6.85a6.29,6.29,0,0,0,6.28,6.29h6.86a6.29,6.29,0,0,0,6.29-6.29V38.52a6.29,6.29,0,0,0-6.29-6.29Z" transform="translate(-29.05 -32.23)"/><rect class="cls-1" x="16.82" y="12.86" width="3" height="23.71"/><rect class="cls-1" x="23.54" y="12.86" width="3" height="40.07"/><rect class="cls-1" x="11.75" y="16.43" width="23.71" height="3"/><rect class="cls-1" x="11.75" y="23.68" width="40.86" height="3"/><rect class="cls-1" x="49.61" y="5.04" width="3" height="20.14"/><rect class="cls-1" x="4.11" y="49.93" width="22.47" height="3"/><path class="cls-1" d="M42.19,792.51a3.28,3.28,0,0,1,3.29,3.28v6.86a3.29,3.29,0,0,1-3.29,3.29H35.33a3.29,3.29,0,0,1-3.28-3.29v-6.86a3.28,3.28,0,0,1,3.28-3.28h6.86m0-3H35.33a6.29,6.29,0,0,0-6.28,6.28v6.86a6.29,6.29,0,0,0,6.28,6.29h6.86a6.29,6.29,0,0,0,6.29-6.29v-6.86a6.29,6.29,0,0,0-6.29-6.28Z" transform="translate(-29.05 -32.23)"/><path class="cls-1" d="M65.91,792.51a3.28,3.28,0,0,1,3.28,3.28v6.86a3.29,3.29,0,0,1-3.28,3.29H59.05a3.29,3.29,0,0,1-3.29-3.29v-6.86a3.28,3.28,0,0,1,3.29-3.28h6.86m0-3H59.05a6.29,6.29,0,0,0-6.29,6.28v6.86a6.29,6.29,0,0,0,6.29,6.29h6.86a6.29,6.29,0,0,0,6.28-6.29v-6.86a6.29,6.29,0,0,0-6.28-6.28Z" transform="translate(-29.05 -32.23)"/><path class="cls-1" d="M42.19,769.25a3.28,3.28,0,0,1,3.29,3.28v6.86a3.29,3.29,0,0,1-3.29,3.29H35.33a3.28,3.28,0,0,1-3.28-3.29v-6.86a3.28,3.28,0,0,1,3.28-3.28h6.86m0-3H35.33a6.29,6.29,0,0,0-6.28,6.28v6.86a6.29,6.29,0,0,0,6.28,6.29h6.86a6.29,6.29,0,0,0,6.29-6.29v-6.86a6.29,6.29,0,0,0-6.29-6.28Z" transform="translate(-29.05 -32.23)"/><rect class="cls-1" x="12.86" y="757.21" width="23.71" height="3"/><rect class="cls-1" x="12.86" y="750.49" width="40.07" height="3"/><rect class="cls-1" x="16.43" y="741.56" width="3" height="23.71"/><rect class="cls-1" x="23.68" y="724.42" width="3" height="40.86"/><rect class="cls-1" x="5.04" y="724.42" width="20.14" height="3"/><rect class="cls-1" x="49.93" y="750.45" width="3" height="22.47"/><path class="cls-1" d="M559.94,35.55a3.29,3.29,0,0,1,3.29,3.29v6.85A3.29,3.29,0,0,1,559.94,49h-6.86a3.28,3.28,0,0,1-3.28-3.29V38.84a3.28,3.28,0,0,1,3.28-3.29h6.86m0-3h-6.86a6.29,6.29,0,0,0-6.28,6.29v6.85A6.29,6.29,0,0,0,553.08,52h6.86a6.29,6.29,0,0,0,6.29-6.29V38.84a6.29,6.29,0,0,0-6.29-6.29Z" transform="translate(-29.05 -32.23)"/><path class="cls-1" d="M536.23,35.55a3.28,3.28,0,0,1,3.28,3.29v6.85A3.28,3.28,0,0,1,536.23,49h-6.86a3.29,3.29,0,0,1-3.29-3.29V38.84a3.29,3.29,0,0,1,3.29-3.29h6.86m0-3h-6.86a6.29,6.29,0,0,0-6.29,6.29v6.85A6.29,6.29,0,0,0,529.37,52h6.86a6.29,6.29,0,0,0,6.28-6.29V38.84a6.29,6.29,0,0,0-6.28-6.29Z" transform="translate(-29.05 -32.23)"/><path class="cls-1" d="M559.94,58.81a3.29,3.29,0,0,1,3.29,3.29V69a3.29,3.29,0,0,1-3.29,3.29h-6.86A3.28,3.28,0,0,1,549.8,69V62.1a3.28,3.28,0,0,1,3.28-3.29h6.86m0-3h-6.86a6.29,6.29,0,0,0-6.28,6.29V69a6.29,6.29,0,0,0,6.28,6.29h6.86A6.29,6.29,0,0,0,566.23,69V62.1a6.29,6.29,0,0,0-6.29-6.29Z" transform="translate(-29.05 -32.23)"/><rect class="cls-1" x="500.61" y="16.82" width="23.71" height="3"/><rect class="cls-1" x="484.25" y="23.54" width="40.07" height="3"/><rect class="cls-1" x="517.75" y="11.75" width="3" height="23.71"/><rect class="cls-1" x="510.5" y="11.75" width="3" height="40.86"/><rect class="cls-1" x="512" y="49.61" width="20.14" height="3"/><rect class="cls-1" x="484.25" y="4.11" width="3" height="22.47"/><path class="cls-1" d="M558.61,793.23a3.29,3.29,0,0,1,3.29,3.29v6.85a3.29,3.29,0,0,1-3.29,3.29h-6.86a3.28,3.28,0,0,1-3.28-3.29v-6.85a3.28,3.28,0,0,1,3.28-3.29h6.86m0-3h-6.86a6.29,6.29,0,0,0-6.28,6.29v6.85a6.29,6.29,0,0,0,6.28,6.29h6.86a6.29,6.29,0,0,0,6.29-6.29v-6.85a6.29,6.29,0,0,0-6.29-6.29Z" transform="translate(-29.05 -32.23)"/><path class="cls-1" d="M558.61,769.52a3.28,3.28,0,0,1,3.29,3.28v6.86a3.28,3.28,0,0,1-3.29,3.28h-6.86a3.28,3.28,0,0,1-3.28-3.28V772.8a3.28,3.28,0,0,1,3.28-3.28h6.86m0-3h-6.86a6.29,6.29,0,0,0-6.28,6.28v6.86a6.28,6.28,0,0,0,6.28,6.28h6.86a6.29,6.29,0,0,0,6.29-6.28V772.8a6.29,6.29,0,0,0-6.29-6.28Z" transform="translate(-29.05 -32.23)"/><path class="cls-1" d="M535.35,793.23a3.29,3.29,0,0,1,3.29,3.29v6.85a3.29,3.29,0,0,1-3.29,3.29h-6.86a3.28,3.28,0,0,1-3.28-3.29v-6.85a3.28,3.28,0,0,1,3.28-3.29h6.86m0-3h-6.86a6.29,6.29,0,0,0-6.28,6.29v6.85a6.29,6.29,0,0,0,6.28,6.29h6.86a6.29,6.29,0,0,0,6.29-6.29v-6.85a6.29,6.29,0,0,0-6.29-6.29Z" transform="translate(-29.05 -32.23)"/><rect class="cls-1" x="516.35" y="740.86" width="3" height="23.71"/><rect class="cls-1" x="509.63" y="724.5" width="3" height="40.07"/><rect class="cls-1" x="500.7" y="758" width="23.71" height="3"/><rect class="cls-1" x="483.56" y="750.75" width="40.86" height="3"/><rect class="cls-1" x="483.56" y="752.25" width="3" height="20.14"/><rect class="cls-1" x="509.59" y="724.5" width="22.47" height="3"/><rect class="cls-1" x="2.61" y="49.93" width="3" height="677.46"/><rect class="cls-1" x="529.18" y="49.82" width="3" height="677.46"/><rect class="cls-1" x="49.66" y="3.54" width="437.63" height="3"/><rect class="cls-1" x="49.98" y="771.42" width="436.61" height="3"/></svg>